<svg width="25" height="25" viewBox="0 0 25 25" fill="none" xmlns="http://www.w3.org/2000/svg">
<mask id="mask0_211_85" style="mask-type:alpha" maskUnits="userSpaceOnUse" x="0" y="0" width="25" height="25">
<rect x="0.425781" y="0.176636" width="24" height="24" fill="#D9D9D9"/>
</mask>
<g mask="url(#mask0_211_85)">
<path d="M5.92583 21.6766C5.6425 21.6766 5.355 21.5891 5.06333 21.4141C4.77166 21.2391 4.55916 21.035 4.42583 20.8016L1.92583 16.4266C1.7925 16.1933 1.72583 15.9058 1.72583 15.5641C1.72583 15.2225 1.7925 14.935 1.92583 14.7016L8.42583 3.55164C8.55916 3.3183 8.77166 3.11414 9.06333 2.93914C9.355 2.76414 9.6425 2.67664 9.92583 2.67664H14.9258C15.2092 2.67664 15.4967 2.76414 15.7883 2.93914C16.08 3.11414 16.2925 3.3183 16.4258 3.55164L20.9758 11.3516C20.5925 11.2516 20.1967 11.185 19.7883 11.1516C19.38 11.1183 18.9758 11.135 18.5758 11.2016L14.7758 4.67664H10.0758L3.72583 15.5766L6.07583 19.6766H13.9758C14.1592 20.06 14.3717 20.4183 14.6133 20.7516C14.855 21.085 15.1342 21.3933 15.4508 21.6766H5.92583ZM7.67583 17.1766L6.95083 15.9016L11.5258 7.92664H13.3258L15.8508 12.3266C15.5675 12.5433 15.305 12.7808 15.0633 13.0391C14.8217 13.2975 14.6092 13.5683 14.4258 13.8516L12.4258 10.3766L9.67583 15.1766H13.7758C13.6592 15.4933 13.5717 15.8183 13.5133 16.1516C13.455 16.485 13.4258 16.8266 13.4258 17.1766H7.67583ZM18.4258 21.1766V18.1766H15.4258V16.1766H18.4258V13.1766H20.4258V16.1766H23.4258V18.1766H20.4258V21.1766H18.4258Z" fill="#1C1B1F"/>
</g>
</svg>
