<svg width="38" height="36" viewBox="0 0 38 36" fill="none" xmlns="http://www.w3.org/2000/svg">
<mask id="mask0_82_422" style="mask-type:alpha" maskUnits="userSpaceOnUse" x="0" y="0" width="38" height="36">
<rect width="38" height="36" fill="#D9D9D9"/>
</mask>
<g mask="url(#mask0_82_422)">
<path d="M7.91667 33C7.04583 33 6.30035 32.7063 5.68021 32.1188C5.06007 31.5312 4.75 30.825 4.75 30V9C4.75 8.175 5.06007 7.46875 5.68021 6.88125C6.30035 6.29375 7.04583 6 7.91667 6H9.5V3H12.6667V6H25.3333V3H28.5V6H30.0833C30.9542 6 31.6997 6.29375 32.3198 6.88125C32.9399 7.46875 33.25 8.175 33.25 9V30C33.25 30.825 32.9399 31.5312 32.3198 32.1188C31.6997 32.7063 30.9542 33 30.0833 33H7.91667ZM7.91667 30H30.0833V15H7.91667V30ZM7.91667 12H30.0833V9H7.91667V12ZM19 21C18.5514 21 18.1753 20.8563 17.8719 20.5688C17.5684 20.2812 17.4167 19.925 17.4167 19.5C17.4167 19.075 17.5684 18.7188 17.8719 18.4313C18.1753 18.1438 18.5514 18 19 18C19.4486 18 19.8247 18.1438 20.1281 18.4313C20.4316 18.7188 20.5833 19.075 20.5833 19.5C20.5833 19.925 20.4316 20.2812 20.1281 20.5688C19.8247 20.8563 19.4486 21 19 21ZM12.6667 21C12.2181 21 11.842 20.8563 11.5385 20.5688C11.2351 20.2812 11.0833 19.925 11.0833 19.5C11.0833 19.075 11.2351 18.7188 11.5385 18.4313C11.842 18.1438 12.2181 18 12.6667 18C13.1153 18 13.4913 18.1438 13.7948 18.4313C14.0983 18.7188 14.25 19.075 14.25 19.5C14.25 19.925 14.0983 20.2812 13.7948 20.5688C13.4913 20.8563 13.1153 21 12.6667 21ZM25.3333 21C24.8847 21 24.5087 20.8563 24.2052 20.5688C23.9017 20.2812 23.75 19.925 23.75 19.5C23.75 19.075 23.9017 18.7188 24.2052 18.4313C24.5087 18.1438 24.8847 18 25.3333 18C25.7819 18 26.158 18.1438 26.4615 18.4313C26.7649 18.7188 26.9167 19.075 26.9167 19.5C26.9167 19.925 26.7649 20.2812 26.4615 20.5688C26.158 20.8563 25.7819 21 25.3333 21ZM19 27C18.5514 27 18.1753 26.8563 17.8719 26.5688C17.5684 26.2812 17.4167 25.925 17.4167 25.5C17.4167 25.075 17.5684 24.7188 17.8719 24.4313C18.1753 24.1438 18.5514 24 19 24C19.4486 24 19.8247 24.1438 20.1281 24.4313C20.4316 24.7188 20.5833 25.075 20.5833 25.5C20.5833 25.925 20.4316 26.2812 20.1281 26.5688C19.8247 26.8563 19.4486 27 19 27ZM12.6667 27C12.2181 27 11.842 26.8563 11.5385 26.5688C11.2351 26.2812 11.0833 25.925 11.0833 25.5C11.0833 25.075 11.2351 24.7188 11.5385 24.4313C11.842 24.1438 12.2181 24 12.6667 24C13.1153 24 13.4913 24.1438 13.7948 24.4313C14.0983 24.7188 14.25 25.075 14.25 25.5C14.25 25.925 14.0983 26.2812 13.7948 26.5688C13.4913 26.8563 13.1153 27 12.6667 27ZM25.3333 27C24.8847 27 24.5087 26.8563 24.2052 26.5688C23.9017 26.2812 23.75 25.925 23.75 25.5C23.75 25.075 23.9017 24.7188 24.2052 24.4313C24.5087 24.1438 24.8847 24 25.3333 24C25.7819 24 26.158 24.1438 26.4615 24.4313C26.7649 24.7188 26.9167 25.075 26.9167 25.5C26.9167 25.925 26.7649 26.2812 26.4615 26.5688C26.158 26.8563 25.7819 27 25.3333 27Z" fill="#1C1B1F"/>
</g>
</svg>
