<svg width="37" height="38" viewBox="0 0 37 38" fill="none" xmlns="http://www.w3.org/2000/svg">
<path d="M11.0023 13.2957V9.49692H27.5058V13.2957H11.0023ZM11.0023 18.9938V15.1951H27.5058V18.9938H11.0023ZM16.5035 37.9877H5.50116C3.97306 37.9877 2.67417 37.4337 1.6045 36.3257C0.534835 35.2177 0 33.8723 0 32.2895V26.5914H5.50116V0H33.007V17.1419C32.3957 17.0786 31.7768 17.1024 31.1503 17.2132C30.5238 17.324 29.9202 17.5218 29.3395 17.8067V3.79877H9.1686V26.5914H20.1709L16.5035 30.3901H3.66744V32.2895C3.66744 32.8277 3.84317 33.2788 4.19463 33.6428C4.5461 34.0069 4.98161 34.1889 5.50116 34.1889H16.5035V37.9877ZM20.1709 37.9877V32.1471L30.3022 21.7005C30.5773 21.4156 30.8829 21.2098 31.2191 21.0832C31.5553 20.9565 31.8914 20.8932 32.2276 20.8932C32.5944 20.8932 32.9458 20.9644 33.282 21.1069C33.6182 21.2494 33.9238 21.463 34.1989 21.7479L35.8951 23.5049C36.1396 23.7898 36.3306 24.1063 36.4681 24.4546C36.6056 24.8028 36.6744 25.151 36.6744 25.4992C36.6744 25.8474 36.6133 26.2036 36.491 26.5676C36.3688 26.9317 36.1701 27.2562 35.8951 27.5411L25.8096 37.9877H20.1709ZM22.9215 35.1386H24.6635L30.2105 29.3455L29.3854 28.4433L28.5143 27.5885L22.9215 33.3342V35.1386ZM29.3854 28.4433L28.5143 27.5885L30.2105 29.3455L29.3854 28.4433Z" fill="#1C1B1F"/>
</svg>
