<svg width="20" height="18" viewBox="0 0 20 18" fill="none" xmlns="http://www.w3.org/2000/svg">
<mask id="mask0_65_240" style="mask-type:alpha" maskUnits="userSpaceOnUse" x="0" y="0" width="20" height="18">
<rect y="0.972168" width="20" height="16.7639" fill="#D9D9D9"/>
</mask>
<g mask="url(#mask0_65_240)">
<path d="M5.8335 15.6405C5.37516 15.6405 4.9828 15.5038 4.65641 15.2302C4.33002 14.9566 4.16683 14.6277 4.16683 14.2436V5.16311H3.3335V3.76612H7.50016V3.06763H12.5002V3.76612H16.6668V5.16311H15.8335V14.2436C15.8335 14.6277 15.6703 14.9566 15.3439 15.2302C15.0175 15.5038 14.6252 15.6405 14.1668 15.6405H5.8335ZM14.1668 5.16311H5.8335V14.2436H14.1668V5.16311ZM7.50016 12.8466H9.16683V6.5601H7.50016V12.8466ZM10.8335 12.8466H12.5002V6.5601H10.8335V12.8466Z" fill="#1C1B1F"/>
</g>
</svg>
