<svg width="18" height="19" viewBox="0 0 18 19" fill="none" xmlns="http://www.w3.org/2000/svg">
<mask id="mask0_65_237" style="mask-type:alpha" maskUnits="userSpaceOnUse" x="0" y="0" width="18" height="19">
<rect width="18" height="18.7361" fill="#D9D9D9"/>
</mask>
<g mask="url(#mask0_65_237)">
<path d="M1.5 18.7362V15.6135H16.5V18.7362H1.5ZM4.5 12.4908H5.55L11.4 6.42108L10.3313 5.30862L4.5 11.3979V12.4908ZM3 14.0521V10.7343L11.4 2.01029C11.5375 1.86716 11.6969 1.75657 11.8781 1.6785C12.0594 1.60043 12.25 1.5614 12.45 1.5614C12.65 1.5614 12.8438 1.60043 13.0312 1.6785C13.2188 1.75657 13.3875 1.87367 13.5375 2.0298L14.5688 3.12274C14.7188 3.26587 14.8281 3.43501 14.8969 3.63018C14.9656 3.82535 15 4.02702 15 4.2352C15 4.43037 14.9656 4.62228 14.8969 4.81095C14.8281 4.99961 14.7188 5.17201 14.5688 5.32814L6.1875 14.0521H3Z" fill="#1C1B1F"/>
</g>
</svg>
