<svg width="45" height="37" viewBox="0 0 45 37" fill="none" xmlns="http://www.w3.org/2000/svg">
<mask id="mask0_71_230" style="mask-type:alpha" maskUnits="userSpaceOnUse" x="0" y="0" width="45" height="37">
<rect width="45" height="37" fill="#D9D9D9"/>
</mask>
<g mask="url(#mask0_71_230)">
<path d="M24.3125 22.9708L26.9375 20.8125C27.125 20.6583 27.2188 20.4785 27.2188 20.2729C27.2188 20.0674 27.125 19.8875 26.9375 19.7333L20.5625 14.4531C20.6875 14.1705 20.7813 13.8878 20.8438 13.6052C20.9063 13.3226 20.9375 13.0014 20.9375 12.6417C20.9375 11.1771 20.3047 9.92448 19.0391 8.88385C17.7734 7.84323 16.25 7.32292 14.4688 7.32292C13.9375 7.32292 13.4062 7.38073 12.875 7.49635C12.3438 7.61198 11.8281 7.77257 11.3281 7.97813L15.7344 11.601L13.1094 13.7594L8.70312 10.1365C8.45312 10.5476 8.25781 10.9715 8.11719 11.4083C7.97656 11.8451 7.90625 12.2819 7.90625 12.7188C7.90625 14.1833 8.53906 15.4359 9.80469 16.4766C11.0703 17.5172 12.5938 18.0375 14.375 18.0375C14.7812 18.0375 15.1641 18.0118 15.5234 17.9604C15.8828 17.909 16.2344 17.8319 16.5781 17.7292L23 22.9708C23.1875 23.125 23.4063 23.2021 23.6563 23.2021C23.9063 23.2021 24.125 23.125 24.3125 22.9708ZM17.75 30.8333C15.1562 30.8333 12.7188 30.4286 10.4375 29.6193C8.15625 28.8099 6.17188 27.7115 4.48438 26.324C2.79687 24.9365 1.46094 23.3049 0.476562 21.4292C-0.507813 19.5535 -1 17.5493 -1 15.4167C-1 13.284 -0.507813 11.2799 0.476562 9.40417C1.46094 7.52847 2.79687 5.89687 4.48438 4.50937C6.17188 3.12187 8.15625 2.02344 10.4375 1.21406C12.7188 0.404687 15.1562 0 17.75 0C20.3438 0 22.7813 0.404687 25.0625 1.21406C27.3438 2.02344 29.3281 3.12187 31.0156 4.50937C32.7031 5.89687 34.0391 7.52847 35.0234 9.40417C36.0078 11.2799 36.5 13.284 36.5 15.4167C36.5 17.5493 36.0078 19.5535 35.0234 21.4292C34.0391 23.3049 32.7031 24.9365 31.0156 26.324C29.3281 27.7115 27.3438 28.8099 25.0625 29.6193C22.7813 30.4286 20.3438 30.8333 17.75 30.8333ZM17.75 27.75C21.9375 27.75 25.4844 26.5552 28.3906 24.1656C31.2969 21.776 32.75 18.8597 32.75 15.4167C32.75 11.9736 31.2969 9.05729 28.3906 6.66771C25.4844 4.27813 21.9375 3.08333 17.75 3.08333C13.5625 3.08333 10.0156 4.27813 7.10938 6.66771C4.20313 9.05729 2.75 11.9736 2.75 15.4167C2.75 18.8597 4.20313 21.776 7.10938 24.1656C10.0156 26.5552 13.5625 27.75 17.75 27.75Z" fill="#1C1B1F"/>
</g>
</svg>
