<svg width="25" height="25" viewBox="0 0 25 25" fill="none" xmlns="http://www.w3.org/2000/svg">
<mask id="mask0_242_91" style="mask-type:alpha" maskUnits="userSpaceOnUse" x="0" y="0" width="25" height="25">
<rect x="0.538086" y="0.933594" width="24" height="24" fill="#D9D9D9"/>
</mask>
<g mask="url(#mask0_242_91)">
<path d="M16.5381 8.93359V5.93359H8.53809V8.93359H6.53809V3.93359H18.5381V8.93359H16.5381ZM18.5381 13.4336C18.8214 13.4336 19.0589 13.3378 19.2506 13.1461C19.4423 12.9544 19.5381 12.7169 19.5381 12.4336C19.5381 12.1503 19.4423 11.9128 19.2506 11.7211C19.0589 11.5294 18.8214 11.4336 18.5381 11.4336C18.2548 11.4336 18.0173 11.5294 17.8256 11.7211C17.6339 11.9128 17.5381 12.1503 17.5381 12.4336C17.5381 12.7169 17.6339 12.9544 17.8256 13.1461C18.0173 13.3378 18.2548 13.4336 18.5381 13.4336ZM16.5381 19.9336V15.9336H8.53809V19.9336H16.5381ZM18.5381 21.9336H6.53809V17.9336H2.53809V11.9336C2.53809 11.0836 2.82975 10.3711 3.41309 9.79609C3.99642 9.22109 4.70475 8.93359 5.53809 8.93359H19.5381C20.3881 8.93359 21.1006 9.22109 21.6756 9.79609C22.2506 10.3711 22.5381 11.0836 22.5381 11.9336V17.9336H18.5381V21.9336ZM20.5381 15.9336V11.9336C20.5381 11.6503 20.4423 11.4128 20.2506 11.2211C20.0589 11.0294 19.8214 10.9336 19.5381 10.9336H5.53809C5.25475 10.9336 5.01725 11.0294 4.82559 11.2211C4.63392 11.4128 4.53809 11.6503 4.53809 11.9336V15.9336H6.53809V13.9336H18.5381V15.9336H20.5381Z" fill="#1C1B1F"/>
</g>
</svg>
