<svg width="30" height="36" viewBox="0 0 30 36" fill="none" xmlns="http://www.w3.org/2000/svg">
<path d="M8.33333 12.4813C8.80556 12.4813 9.20139 12.2951 9.52083 11.9228C9.84028 11.5506 10 11.0892 10 10.5389C10 9.98858 9.84028 9.52727 9.52083 9.15498C9.20139 8.7827 8.80556 8.59656 8.33333 8.59656C7.86111 8.59656 7.46528 8.7827 7.14583 9.15498C6.82639 9.52727 6.66667 9.98858 6.66667 10.5389C6.66667 11.0892 6.82639 11.5506 7.14583 11.9228C7.46528 12.2951 7.86111 12.4813 8.33333 12.4813ZM8.33333 20.2507C8.80556 20.2507 9.20139 20.0645 9.52083 19.6922C9.84028 19.32 10 18.8587 10 18.3083C10 17.758 9.84028 17.2967 9.52083 16.9244C9.20139 16.5521 8.80556 16.366 8.33333 16.366C7.86111 16.366 7.46528 16.5521 7.14583 16.9244C6.82639 17.2967 6.66667 17.758 6.66667 18.3083C6.66667 18.8587 6.82639 19.32 7.14583 19.6922C7.46528 20.0645 7.86111 20.2507 8.33333 20.2507ZM8.33333 28.0201C8.80556 28.0201 9.20139 27.8339 9.52083 27.4617C9.84028 27.0894 10 26.6281 10 26.0777C10 25.5274 9.84028 25.0661 9.52083 24.6938C9.20139 24.3215 8.80556 24.1354 8.33333 24.1354C7.86111 24.1354 7.46528 24.3215 7.14583 24.6938C6.82639 25.0661 6.66667 25.5274 6.66667 26.0777C6.66667 26.6281 6.82639 27.0894 7.14583 27.4617C7.46528 27.8339 7.86111 28.0201 8.33333 28.0201ZM3.33333 35.7895C2.41667 35.7895 1.63194 35.4091 0.979167 34.6484C0.326389 33.8876 0 32.9731 0 31.9048V4.71185C0 3.64356 0.326389 2.72904 0.979167 1.96828C1.63194 1.20753 2.41667 0.827148 3.33333 0.827148H21.6667L30 10.5389V31.9048C30 32.9731 29.6736 33.8876 29.0208 34.6484C28.3681 35.4091 27.5833 35.7895 26.6667 35.7895H3.33333ZM3.33333 31.9048H26.6667V12.4813H20V4.71185H3.33333V31.9048Z" fill="#1C1B1F"/>
</svg>
