<svg width="43" height="41" viewBox="0 0 43 41" fill="none" xmlns="http://www.w3.org/2000/svg">
<mask id="mask0_86_1416" style="mask-type:alpha" maskUnits="userSpaceOnUse" x="0" y="0" width="43" height="41">
<rect width="43" height="40.8774" fill="#D9D9D9"/>
</mask>
<g mask="url(#mask0_86_1416)">
<path d="M20.1562 22.9935C21.291 22.9935 22.2465 22.6245 23.0229 21.8864C23.7993 21.1483 24.1875 20.2399 24.1875 19.1612C24.1875 18.0825 23.7993 17.1741 23.0229 16.4361C22.2465 15.698 21.291 15.329 20.1562 15.329C19.0215 15.329 18.066 15.698 17.2896 16.4361C16.5132 17.1741 16.125 18.0825 16.125 19.1612C16.125 20.2399 16.5132 21.1483 17.2896 21.8864C18.066 22.6245 19.0215 22.9935 20.1562 22.9935ZM28.801 29.8064L24.0979 25.3354C23.5007 25.7045 22.8661 25.9741 22.1943 26.1445C21.5224 26.3148 20.8431 26.4 20.1562 26.4C18.0361 26.4 16.237 25.6974 14.7589 24.2922C13.2807 22.887 12.5417 21.1767 12.5417 19.1612C12.5417 17.1458 13.2807 15.4354 14.7589 14.0303C16.237 12.6251 18.0361 11.9225 20.1562 11.9225C22.2764 11.9225 24.0755 12.6251 25.5536 14.0303C27.0318 15.4354 27.7708 17.1458 27.7708 19.1612C27.7708 19.8141 27.6738 20.4599 27.4797 21.0987C27.2856 21.7374 26.9944 22.3406 26.6063 22.9083L31.3542 27.4219L28.801 29.8064ZM8.95833 35.7677C7.97292 35.7677 7.12934 35.4342 6.4276 34.7671C5.72587 34.1 5.375 33.298 5.375 32.3612V25.5483H8.95833V32.3612H16.125V35.7677H8.95833ZM26.875 35.7677V32.3612H34.0417V25.5483H37.625V32.3612C37.625 33.298 37.2741 34.1 36.5724 34.7671C35.8707 35.4342 35.0271 35.7677 34.0417 35.7677H26.875ZM5.375 15.329V8.51607C5.375 7.5793 5.72587 6.77736 6.4276 6.11026C7.12934 5.44317 7.97292 5.10962 8.95833 5.10962H16.125V8.51607H8.95833V15.329H5.375ZM34.0417 15.329V8.51607H26.875V5.10962H34.0417C35.0271 5.10962 35.8707 5.44317 36.5724 6.11026C37.2741 6.77736 37.625 7.5793 37.625 8.51607V15.329H34.0417Z" fill="#1C1B1F"/>
</g>
</svg>
